# File created by Blade
# Date/Time:  Thu Sep 25 17:14:50 2014
# Frame Rate: 120.000 fps
#------------------------------------------------------
:FULLY-SPECIFIED
:DEGREES
849
root -22.830046 31.711369 9.884696 355.463030 71.507091 345.646725
Spine -4.204620 -9.767067 8.995745
Head -31.099231 -27.237495 19.658531
LeftShoulder 0.698660 17.441137 10.717301
LeftArm 43.870116 30.234502 -51.440506
LeftForeArm 7.640264 -0.000000 13.606749
LeftHand -22.666944 -0.000000 -14.733696
LeftHandThumb1 -26.253704 0.000000 33.147579
RightShoulder -20.170718 8.198087 -23.520742
RightArm -21.000323 -12.621526 82.217861
RightForeArm -11.144678 -0.000000 18.216635
RightHand -8.005114 -0.000000 6.536524
RightHandThumb1 -24.326973 -0.000000 -32.862282
LeftUpLeg -14.644397 21.520415 5.914446
LeftLeg 66.187675 -0.000000 -0.000000
LeftFoot -12.892084 5.362503 -32.714892
LeftToeBase -9.046901 -0.000000 0.000000
RightUpLeg -12.170442 -0.078147 16.291274
RightLeg 0.305444 -0.000000 -0.000000
RightFoot -2.852692 5.487093 -14.550817
RightToeBase 1.147049 -0.000000 -0.000000
850
root -22.602613 31.761383 9.848023 357.261334 69.795147 347.561362
Spine -4.131338 -9.303950 8.535079
Head -30.907882 -27.139486 19.467362
LeftShoulder 0.206012 18.029361 10.742623
LeftArm 42.384762 27.370302 -51.576265
LeftForeArm 7.923980 -0.000000 13.908156
LeftHand -23.181612 0.000000 -14.205818
LeftHandThumb1 -26.253704 0.000000 33.147579
RightShoulder -20.143901 8.139268 -23.876239
RightArm -21.230627 -11.148696 80.345762
RightForeArm -11.937325 -0.000000 17.942342
RightHand -8.452009 0.000000 5.649033
RightHandThumb1 -24.326973 -0.000000 -32.862282
LeftUpLeg -15.332953 20.944821 5.690956
LeftLeg 66.078736 -0.000000 -0.000000
LeftFoot -14.041426 6.301692 -32.449296
LeftToeBase -8.883560 -0.000000 0.000000
RightUpLeg -11.614427 0.435734 15.844491
RightLeg 0.511183 -0.000000 -0.000000
RightFoot -3.060370 6.268017 -14.908475
RightToeBase 0.653162 -0.000000 -0.000000
851
root -22.381064 31.813743 9.803540 358.878767 68.035267 349.305409
Spine -4.018420 -8.781317 8.039706
Head -30.774157 -26.953480 19.270792
LeftShoulder -0.340960 18.531106 10.801654
LeftArm 41.132013 24.623703 -51.449599
LeftForeArm 7.856311 -0.000000 14.040142
LeftHand -23.370932 -0.000000 -14.105223
LeftHandThumb1 -26.253704 0.000000 33.147579
RightShoulder -20.034293 8.149199 -24.349381
RightArm -21.510884 -9.331595 78.450936
RightForeArm -13.132899 -0.000000 17.608738
RightHand -8.583094 -0.000000 5.391369
RightHandThumb1 -24.326973 -0.000000 -32.862282
LeftUpLeg -15.952723 20.330817 5.461673
LeftLeg 65.695662 -0.000000 -0.000000
LeftFoot -15.381498 7.524318 -31.801563
LeftToeBase -7.909401 -0.000000 0.000000
RightUpLeg -11.079766 1.153714 15.287804
RightLeg 0.711240 -0.000000 -0.000000
RightFoot -3.279875 6.933854 -15.355211
RightToeBase 0.253284 -0.000000 -0.000000
852
root -22.168738 31.870616 9.756760 360.336762 66.218752 350.828364
Spine -3.986318 -8.217888 7.522319
Head -30.557090 -26.765994 19.121951
LeftShoulder -0.935008 19.153744 10.902279
LeftArm 40.124664 21.980726 -51.081004
LeftForeArm 7.635961 -0.000000 14.142562
LeftHand -23.795853 -0.000000 -13.507170
LeftHandThumb1 -26.253704 0.000000 33.147579
RightShoulder -19.943864 8.064070 -24.739649
RightArm -21.673296 -8.094655 76.593952
RightForeArm -13.688132 -0.000000 17.384136
RightHand -8.955924 -0.000000 4.935107
RightHandThumb1 -24.326973 -0.000000 -32.862282
LeftUpLeg -16.588558 19.542684 5.180942
LeftLeg 65.100500 -0.000000 -0.000000
LeftFoot -16.583196 8.445353 -32.363197
LeftToeBase -7.973327 -0.000000 0.000000
RightUpLeg -10.587802 2.161680 14.693672
RightLeg 0.780135 -0.000000 -0.000000
RightFoot -3.214805 7.302212 -15.389665
RightToeBase -0.207936 -0.000000 0.000000
853
root -21.960616 31.929029 9.705327 361.679419 64.435139 352.214056
Spine -3.981910 -7.621512 6.979259
Head -30.394119 -26.608678 18.968196
LeftShoulder -1.497893 19.602962 11.060923
LeftArm 39.030599 19.417758 -50.702416
LeftForeArm 7.479837 0.000000 14.237295
LeftHand -24.108833 -0.000000 -13.191470
LeftHandThumb1 -26.253704 0.000000 33.147579
RightShoulder -19.892073 8.075970 -25.204587
RightArm -21.981461 -6.881063 74.720062
RightForeArm -14.324977 0.000000 17.281835
RightHand -9.341853 -0.000000 4.649879
RightHandThumb1 -24.326973 -0.000000 -32.862282
LeftUpLeg -17.153663 18.636720 4.937723
LeftLeg 64.184249 -0.000000 -0.000000
LeftFoot -18.109793 9.265163 -33.216904
LeftToeBase -7.530720 -0.000000 0.000000
RightUpLeg -10.199851 2.921356 14.077641
RightLeg 0.931821 -0.000000 -0.000000
RightFoot -3.299249 7.934981 -15.646460
RightToeBase -0.631221 -0.000000 0.000000
854
root -21.752589 31.989539 9.653989 362.836180 62.615620 353.434415
Spine -3.978218 -7.086337 6.449619
Head -30.126423 -26.446087 18.761940
LeftShoulder -2.179898 20.049489 11.195701
LeftArm 38.082623 17.121556 -50.065624
LeftForeArm 7.384798 -0.000000 14.139172
LeftHand -24.201350 -0.000000 -12.720955
LeftHandThumb1 -26.253704 0.000000 33.147579
RightShoulder -19.773241 8.043759 -25.618332
RightArm -22.163302 -6.186803 72.939293
RightForeArm -14.487997 -0.000000 17.269357
RightHand -10.038264 -0.000000 4.046852
RightHandThumb1 -24.326973 -0.000000 -32.862282
LeftUpLeg -17.584380 17.660658 4.739953
LeftLeg 62.997669 -0.000000 -0.000000
LeftFoot -19.238010 10.566211 -32.970840
LeftToeBase -6.301735 -0.000000 0.000000
RightUpLeg -9.866346 3.367279 13.482728
RightLeg 1.207715 -0.000000 -0.000000
RightFoot -3.539699 8.959281 -15.830401
RightToeBase -1.047203 -0.000000 0.000000
855
root -21.550874 32.055159 9.599885 363.896525 60.821214 354.514847
Spine -4.053854 -6.459254 5.906217
Head -29.810798 -26.335449 18.527845
LeftShoulder -2.664165 20.489401 11.475297
LeftArm 37.117395 14.909345 -49.416818
LeftForeArm 7.514127 -0.000000 14.043573
LeftHand -24.537214 0.000000 -12.318964
LeftHandThumb1 -26.253704 0.000000 33.147579
RightShoulder -19.596123 8.059879 -26.090505
RightArm -22.372835 -4.441270 70.868427
RightForeArm -15.445170 0.000000 17.023192
RightHand -10.385407 -0.000000 4.106603
RightHandThumb1 -24.326973 -0.000000 -32.862282
LeftUpLeg -17.917605 16.519657 4.579888
LeftLeg 61.475210 -0.000000 -0.000000
LeftFoot -20.514998 11.616920 -33.394566
LeftToeBase -6.527943 -0.000000 0.000000
RightUpLeg -9.571855 3.861712 12.863942
RightLeg 1.384057 -0.000000 -0.000000
RightFoot -3.644451 9.859922 -15.918562
RightToeBase -1.478677 -0.000000 0.000000
856
root -21.350750 32.124335 9.557789 364.768354 58.945124 355.391332
Spine -4.175754 -5.746568 5.413622
Head -29.417715 -26.179231 18.186726
LeftShoulder -3.224289 21.036252 11.691521
LeftArm 36.330404 12.860878 -48.475975
LeftForeArm 6.907131 0.000000 13.829354
LeftHand -24.787271 -0.000000 -11.600398
LeftHandThumb1 -26.253704 0.000000 33.147579
RightShoulder -19.504919 8.016905 -26.539453
RightArm -22.556978 -3.532137 68.955638
RightForeArm -15.559336 -0.000000 16.921795
RightHand -10.635435 -0.000000 3.883277
RightHandThumb1 -24.326973 -0.000000 -32.862282
LeftUpLeg -18.130004 15.450382 4.532776
LeftLeg 59.699012 -0.000000 -0.000000
LeftFoot -21.671703 12.411429 -33.922496
LeftToeBase -6.799335 -0.000000 0.000000
RightUpLeg -8.957722 5.105902 12.219261
RightLeg 0.858906 -0.000000 -0.000000
RightFoot -3.091840 10.082703 -15.546651
RightToeBase -1.810654 -0.000000 0.000000
857
root -21.155205 32.195277 9.513761 365.459725 57.120922 356.096907
Spine -4.227056 -5.110079 4.981620
Head -29.135817 -25.992101 17.909219
LeftShoulder -3.838198 21.532503 11.938560
LeftArm 35.551326 10.886878 -47.558554
LeftForeArm 6.594002 0.000000 13.636599
LeftHand -25.175974 0.000000 -11.060250
LeftHandThumb1 -26.253704 0.000000 33.147579
RightShoulder -19.465146 7.932898 -26.988712
RightArm -22.542644 -2.534225 67.028830
RightForeArm -15.732606 -0.000000 16.853750
RightHand -10.942887 -0.000000 3.579756
RightHandThumb1 -24.326973 -0.000000 -32.862282
LeftUpLeg -18.192580 14.252245 4.603142
LeftLeg 57.680601 -0.000000 -0.000000
LeftFoot -22.868860 13.294602 -34.066444
LeftToeBase -6.713068 -0.000000 0.000000
RightUpLeg -8.526021 5.832291 11.717229
RightLeg 0.737212 -0.000000 -0.000000
RightFoot -2.827166 10.670397 -15.445204
RightToeBase -2.443156 -0.000000 0.000000
